<?xml version="1.0" standalone="no"?>
<!DOCTYPE svg PUBLIC "-//W3C//DTD SVG 20010904//EN"
 "http://www.w3.org/TR/2001/REC-SVG-20010904/DTD/svg10.dtd">
<svg version="1.0" xmlns="http://www.w3.org/2000/svg"
 width="1536.000000pt" height="1024.000000pt" viewBox="0 0 1536.000000 1024.000000"
 preserveAspectRatio="xMidYMid meet">
<metadata>
Created by potrace 1.16, written by Peter Selinger 2001-2019
</metadata>
<g transform="translate(0.000000,1024.000000) scale(0.100000,-0.100000)"
fill="#000000" stroke="none">
<path d="M7350 7809 c-221 -35 -649 -308 -940 -600 -189 -189 -256 -267 -365
-424 -79 -113 -134 -222 -166 -325 -31 -101 -33 -265 -5 -328 10 -23 23 -42
28 -42 4 0 8 -7 8 -14 0 -23 59 -74 121 -106 113 -56 189 -76 376 -99 34 -4
65 -10 69 -14 4 -4 -8 -30 -26 -59 -18 -29 -56 -91 -83 -138 -28 -47 -65 -107
-82 -135 -18 -27 -74 -117 -125 -200 -51 -82 -101 -159 -111 -171 -11 -11 -19
-24 -19 -28 0 -4 -22 -42 -49 -84 -114 -181 -218 -381 -251 -483 -11 -37 -22
-93 -23 -125 -2 -56 -1 -59 23 -62 32 -4 64 29 234 243 27 33 56 69 65 80 9
11 64 78 121 149 58 71 121 148 140 172 19 23 62 75 95 116 224 274 450 537
462 537 19 1 28 -45 26 -128 -2 -90 -23 -155 -100 -306 -37 -72 -51 -93 -153
-233 -213 -293 -543 -625 -913 -918 -86 -69 -135 -91 -272 -123 -149 -36 -380
-97 -405 -108 -8 -3 -23 -8 -32 -9 -84 -17 -549 -191 -693 -259 -209 -100
-325 -175 -422 -273 -48 -49 -55 -85 -24 -123 17 -21 26 -23 102 -22 101 0
270 37 384 83 44 18 98 38 120 46 62 23 462 222 542 271 39 23 74 43 76 43 3
0 36 19 74 43 37 23 97 60 132 82 35 22 118 78 185 124 66 46 139 92 162 102
33 15 301 82 424 106 14 3 97 21 185 40 88 20 171 37 184 39 13 1 55 9 95 18
39 8 85 18 101 21 138 27 251 47 307 55 38 5 146 24 240 40 195 34 337 55 342
49 2 -2 -5 -51 -15 -109 -36 -196 -20 -419 37 -534 26 -51 26 -76 -1 -76 -15
0 -304 -112 -395 -153 -52 -23 -200 -93 -315 -148 -78 -38 -180 -92 -240 -129
-17 -10 -42 -25 -55 -32 -34 -18 -206 -135 -238 -161 -102 -85 -180 -155 -197
-176 -10 -14 -30 -36 -42 -49 -28 -30 -29 -42 -4 -42 10 0 49 30 87 66 167
161 479 366 774 510 85 41 172 84 192 94 20 11 42 20 47 20 6 0 34 11 63 24
74 33 318 128 364 141 16 4 26 -1 39 -21 36 -55 183 -174 216 -174 7 0 26 -10
43 -23 26 -20 159 -70 183 -69 4 0 24 -6 43 -14 19 -8 36 -15 38 -15 1 1 3 1
5 0 24 -7 214 -37 287 -44 278 -29 654 -25 900 11 19 3 67 9 105 15 39 5 77
11 85 13 8 1 33 6 55 10 169 33 308 68 465 119 52 17 100 32 105 33 23 5 131
47 139 55 6 5 17 9 25 9 17 0 236 109 298 148 287 183 395 310 407 479 3 38
-1 63 -15 90 -10 21 -19 38 -19 39 0 1 28 5 63 8 368 34 855 26 1152 -19 238
-36 511 -120 591 -182 20 -15 38 -38 41 -54 7 -36 26 -52 52 -44 51 16 28 108
-36 148 -92 57 -337 143 -466 163 -55 9 -158 22 -262 34 -55 6 -116 13 -135
16 -66 9 -625 12 -745 4 -299 -20 -303 -20 -333 5 -62 51 -223 106 -410 140
-324 58 -478 69 -982 70 -511 0 -635 -4 -1110 -40 -215 -16 -465 -41 -615 -60
-162 -22 -157 -22 -149 22 4 20 13 48 20 62 8 14 14 29 14 33 0 10 53 129 140
313 43 93 193 375 233 440 48 78 76 126 96 165 13 25 38 68 55 95 75 117 86
135 86 144 0 5 3 11 8 13 8 4 106 152 147 223 32 56 316 490 376 575 21 30 78
114 127 185 48 72 90 132 93 135 3 3 19 28 35 55 26 45 68 111 190 300 65 101
114 206 120 260 6 46 4 52 -17 62 -30 13 -52 5 -132 -49 -223 -150 -533 -457
-917 -908 -30 -35 -67 -78 -82 -95 -179 -203 -346 -401 -481 -570 -49 -60 -92
-112 -96 -115 -4 -3 -14 -14 -22 -26 -8 -12 -42 -52 -75 -90 -34 -38 -93 -107
-130 -154 -38 -47 -71 -87 -74 -90 -3 -3 -36 -42 -74 -88 -38 -45 -71 -80 -74
-78 -2 3 25 60 61 128 36 68 81 152 99 188 19 36 59 106 88 155 29 50 82 141
117 204 35 62 81 140 103 173 22 33 40 63 40 65 0 5 115 193 233 379 36 59
107 212 107 234 0 25 -13 32 -64 32 -99 2 -281 -138 -631 -487 -258 -257 -444
-449 -482 -498 l-22 -28 -39 25 c-22 13 -73 35 -115 48 l-75 23 47 75 c26 41
80 127 120 190 40 63 99 156 131 205 57 87 140 220 150 240 3 6 24 36 47 67
39 51 151 219 163 243 3 6 26 42 51 80 125 191 269 465 290 548 18 72 6 152
-28 196 -52 65 -146 96 -243 80z m120 -80 c43 -24 70 -73 70 -125 0 -42 -41
-168 -78 -239 -58 -111 -226 -378 -369 -585 -51 -74 -437 -660 -491 -745 -93
-147 -78 -135 -153 -125 -35 5 -82 11 -104 13 -63 8 -176 42 -235 72 -78 40
-153 118 -170 180 -18 66 -17 175 4 253 30 119 151 331 262 462 135 160 465
485 507 499 7 2 14 7 17 10 16 21 201 156 247 181 168 92 213 115 280 139 96
36 162 39 213 10z m1835 -321 c-19 -65 -78 -169 -193 -342 -70 -105 -129 -196
-132 -201 -9 -18 -72 -109 -91 -130 -9 -11 -25 -34 -36 -51 -10 -17 -43 -66
-73 -109 -201 -286 -505 -736 -519 -770 -2 -5 -43 -68 -91 -140 -81 -120 -220
-343 -220 -351 0 -2 -21 -38 -46 -81 -60 -101 -215 -410 -258 -515 -40 -97
-106 -290 -106 -310 0 -10 -47 -21 -182 -42 -101 -15 -201 -32 -223 -37 -22
-4 -110 -20 -195 -34 -85 -14 -184 -32 -220 -40 -36 -7 -90 -18 -120 -24 -30
-6 -75 -16 -100 -22 -25 -6 -97 -21 -160 -34 -180 -37 -420 -92 -525 -119 -87
-23 -93 -20 -41 22 105 83 255 209 330 276 63 56 275 268 321 320 213 240 335
407 420 576 105 208 124 348 63 467 -13 26 -18 20 180 238 192 213 515 533
612 605 18 14 40 32 49 41 23 24 174 119 189 119 17 0 -11 -50 -223 -395 -91
-150 -248 -412 -370 -620 -61 -103 -196 -355 -199 -370 -1 -5 -12 -26 -24 -45
-47 -74 -152 -301 -152 -329 0 -29 14 -41 49 -41 32 0 79 49 206 210 44 57
151 186 215 260 31 36 63 74 71 86 20 29 95 119 152 180 26 28 47 54 47 58 0
4 6 13 13 20 12 12 25 28 150 180 32 39 76 92 98 117 22 26 54 65 72 87 18 21
61 72 96 113 35 41 73 85 84 99 11 14 36 43 56 65 20 23 56 65 81 95 241 287
536 601 737 782 82 74 190 158 205 158 5 0 6 -10 3 -22z m-2586 -1616 c41 -20
76 -41 78 -47 1 -5 -42 -64 -98 -130 -103 -123 -259 -313 -307 -374 -15 -19
-45 -55 -67 -80 -55 -62 -220 -268 -327 -407 -47 -62 -114 -145 -147 -184 -34
-39 -61 -75 -61 -80 0 -6 -4 -10 -10 -10 -27 0 232 489 329 620 10 14 52 77
93 140 41 63 109 168 151 233 43 65 77 119 77 121 0 2 36 58 80 125 93 140 82
136 209 73z m3071 -1327 c269 -7 430 -22 640 -59 101 -18 280 -64 295 -75 5
-5 27 -14 48 -20 20 -7 37 -16 37 -20 0 -5 -44 -11 -97 -14 -146 -10 -438 -36
-518 -47 -38 -5 -92 -12 -120 -15 -108 -12 -144 -17 -265 -36 -321 -51 -699
-122 -878 -164 -59 -14 -136 -33 -172 -41 -36 -9 -90 -22 -120 -29 -30 -8 -80
-19 -110 -26 -30 -6 -59 -15 -65 -19 -5 -5 -12 -8 -15 -7 -22 3 -440 -115
-647 -184 -67 -23 -126 -41 -130 -41 -4 0 -16 -4 -25 -9 -14 -8 -22 4 -49 74
-28 73 -32 96 -37 207 -3 86 1 159 12 235 27 181 19 168 117 182 46 7 116 15
154 18 39 4 120 13 180 20 61 8 153 17 205 20 52 3 102 8 110 10 8 2 62 6 120
10 58 3 121 8 140 10 95 12 913 36 955 28 6 -1 111 -4 235 -8z m1124 -276 c27
-68 14 -166 -32 -227 -45 -61 -146 -164 -199 -204 -66 -48 -273 -173 -303
-183 -13 -4 -59 -24 -104 -45 -104 -49 -405 -149 -496 -166 -14 -3 -38 -9 -55
-14 -44 -14 -358 -68 -440 -76 -38 -3 -78 -8 -87 -10 -140 -25 -633 -21 -823
6 -175 26 -443 104 -479 140 -6 6 -17 10 -26 10 -18 0 -135 91 -163 127 -10
13 -25 30 -34 39 -8 8 -14 16 -12 18 13 9 117 47 194 71 50 15 99 31 110 36
27 11 106 34 240 70 61 16 151 40 200 53 193 52 251 67 282 71 18 2 41 9 52
15 11 5 24 9 28 8 4 -1 26 3 48 9 80 20 266 60 415 87 41 8 98 20 125 26 56
13 142 28 195 35 19 3 62 9 95 15 222 36 407 62 590 80 50 5 110 11 135 14 71
8 285 26 395 33 55 3 102 7 103 9 11 9 32 -13 46 -47z m-5475 -283 c-38 -36
-133 -100 -299 -201 -363 -222 -688 -378 -940 -451 -119 -34 -282 -41 -288
-12 -19 95 600 404 1108 554 303 89 433 123 419 110z"/>
<path d="M4650 7544 c-207 -38 -335 -76 -555 -164 -262 -105 -518 -241 -713
-379 -52 -36 -103 -71 -116 -78 -41 -23 -311 -244 -387 -318 -104 -101 -198
-208 -248 -282 -77 -113 -131 -275 -131 -392 0 -218 113 -356 346 -423 71 -20
101 -22 284 -22 172 0 211 3 243 17 63 29 46 39 -50 30 -49 -4 -149 -7 -224
-6 -123 1 -144 4 -228 32 -51 17 -112 44 -136 61 -68 47 -133 126 -150 183
-16 55 -19 178 -6 242 34 159 138 321 301 470 30 27 70 64 88 82 18 17 54 49
79 70 26 21 60 50 77 64 17 14 58 46 91 70 34 24 67 50 75 57 8 7 29 22 45 32
17 11 57 40 90 64 33 25 103 71 155 102 52 32 111 68 130 80 122 79 596 283
719 310 14 3 28 7 31 9 4 2 21 7 38 10 17 3 61 11 98 19 37 8 79 12 93 10 14
-2 40 -6 57 -9 18 -3 44 -15 58 -26 47 -37 32 -140 -45 -307 -45 -98 -159
-308 -201 -369 -15 -23 -28 -44 -28 -47 0 -4 -45 -79 -208 -342 -85 -140 -161
-256 -347 -535 -284 -425 -403 -602 -419 -626 -9 -12 -137 -83 -286 -157 -148
-75 -331 -173 -407 -217 -76 -45 -158 -93 -183 -107 -121 -68 -389 -256 -500
-351 -36 -31 -85 -73 -110 -93 -55 -45 -257 -243 -324 -317 -91 -102 -220
-286 -267 -381 -63 -127 -80 -181 -86 -266 -5 -59 -2 -77 17 -113 30 -60 66
-87 132 -101 53 -12 77 -11 147 4 74 16 176 65 258 124 124 88 176 132 318
263 137 126 155 143 192 182 20 21 60 61 87 89 28 29 91 100 140 158 48 58 97
113 106 122 10 10 31 34 47 55 15 21 30 40 33 43 3 3 17 21 31 40 15 19 39 49
53 65 15 17 39 48 54 70 15 22 30 42 33 45 13 11 208 267 257 338 30 42 64 90
77 107 27 35 113 150 135 181 8 12 32 46 52 75 59 87 95 114 228 174 69 31
170 78 225 105 55 26 111 51 124 55 28 8 32 17 -59 -120 -36 -55 -93 -143
-125 -195 -32 -52 -83 -133 -112 -180 -57 -92 -68 -140 -33 -140 33 0 73 25
100 62 39 52 237 247 325 318 74 60 277 190 297 190 13 0 -27 -73 -98 -181
-108 -164 -132 -250 -78 -286 52 -34 159 11 320 133 l36 28 -7 -36 c-13 -71
30 -108 104 -87 43 12 157 78 191 110 8 8 33 27 55 44 22 16 55 43 73 60 39
35 62 49 62 38 0 -4 -7 -30 -15 -57 -20 -67 -19 -98 6 -130 59 -75 174 -68
344 21 73 38 115 65 152 97 23 20 54 39 89 55 23 10 94 89 94 103 0 10 -12 4
-55 -27 -77 -55 -337 -195 -398 -214 -101 -31 -147 -16 -147 48 0 45 32 115
94 205 26 37 52 78 57 90 5 11 16 32 24 46 18 30 19 66 3 76 -20 13 -121 37
-154 37 -28 1 -229 -92 -244 -112 -3 -3 -32 -26 -65 -51 -32 -25 -104 -89
-160 -143 -175 -172 -360 -295 -403 -269 -23 15 17 87 148 268 32 45 70 134
70 164 0 11 -10 29 -22 40 -30 28 -57 22 -154 -35 -110 -65 -220 -149 -345
-262 -25 -24 -49 -43 -52 -43 -12 0 154 270 233 380 18 25 82 83 142 130 112
87 436 404 586 572 45 51 105 118 132 149 194 218 366 466 394 567 16 58 16
65 1 88 -11 17 -25 24 -48 24 -38 0 -63 -16 -131 -82 -28 -26 -54 -48 -59 -48
-15 0 -278 -269 -407 -416 -129 -147 -258 -312 -362 -464 -35 -52 -84 -122
-107 -155 -23 -33 -70 -100 -103 -150 -70 -104 -146 -181 -209 -211 -153 -75
-419 -193 -419 -187 0 3 13 22 28 42 38 48 420 614 586 866 11 18 88 140 206
330 39 62 117 192 135 224 6 11 16 25 22 32 6 8 39 68 73 134 35 66 66 125 71
131 4 5 29 62 55 125 38 95 46 126 48 185 1 60 -3 76 -24 108 -14 20 -43 46
-65 57 -39 20 -136 32 -185 23z m824 -666 c-8 -23 -20 -49 -28 -58 -7 -8 -28
-42 -46 -75 -35 -62 -184 -264 -274 -370 -209 -246 -509 -560 -641 -670 -33
-27 -63 -54 -67 -59 -4 -6 -10 -7 -13 -4 -4 4 26 54 66 113 41 58 79 113 84
123 6 9 13 19 16 22 3 3 27 37 54 75 27 39 88 121 135 183 47 62 95 128 108
145 22 30 66 82 176 206 118 134 416 411 442 411 2 0 -4 -19 -12 -42z m-124
-1414 c0 -17 -190 -217 -275 -289 -119 -102 -260 -186 -279 -168 -13 14 61
122 141 206 116 121 313 254 381 256 17 1 32 -2 32 -5z m-1902 -385 c-54 -66
-173 -229 -281 -384 -88 -128 -174 -243 -401 -539 -25 -32 -64 -80 -88 -106
-24 -26 -65 -74 -93 -106 -85 -100 -372 -393 -479 -489 -50 -45 -124 -105
-130 -105 -4 0 -27 -15 -51 -34 -62 -47 -182 -104 -247 -118 -65 -14 -126 0
-172 37 -60 48 -45 176 40 342 60 115 133 233 146 233 4 0 8 5 8 11 0 18 155
195 274 314 102 101 231 215 330 290 21 17 57 45 80 62 23 18 66 49 96 70 30
20 57 40 60 43 7 7 120 82 145 96 49 27 151 87 210 124 69 43 562 299 578 300
5 0 -6 -18 -25 -41z"/>
<path d="M11577 7350 c-42 -26 -135 -118 -197 -195 -30 -37 -65 -79 -78 -94
-12 -14 -48 -59 -80 -100 -31 -41 -91 -117 -133 -170 -42 -53 -89 -114 -105
-137 -35 -50 -72 -98 -139 -181 -27 -34 -72 -92 -100 -128 -27 -36 -55 -71
-60 -78 -33 -39 -417 -559 -477 -646 -81 -117 -109 -139 -289 -234 -108 -57
-279 -131 -286 -123 -3 2 12 25 32 52 78 102 98 184 51 205 -37 17 -90 3 -159
-45 -113 -77 -181 -201 -142 -260 10 -14 23 -26 31 -26 22 0 27 -20 9 -40 -40
-45 -181 -130 -229 -139 -45 -8 -51 -7 -74 16 -21 21 -24 31 -20 74 3 28 21
80 42 123 31 64 53 90 153 183 238 220 495 469 543 529 27 32 166 188 213 237
15 16 27 32 27 36 0 3 8 14 18 22 9 9 26 29 37 44 11 16 36 48 55 71 19 24 53
69 75 100 22 31 46 63 53 71 31 31 145 214 184 293 53 107 62 177 27 209 -13
11 -30 19 -38 16 -9 -2 -29 -7 -45 -9 -55 -10 -187 -119 -306 -252 -154 -171
-263 -304 -365 -444 -30 -41 -80 -109 -110 -150 -155 -211 -339 -494 -495
-759 -50 -85 -92 -129 -170 -180 -30 -20 -80 -54 -110 -77 -127 -93 -209 -132
-233 -108 -15 16 80 196 158 298 38 51 47 102 19 113 -25 9 -57 -15 -119 -92
-116 -143 -347 -335 -405 -335 -38 0 40 141 164 297 58 72 110 134 115 138 7
4 6 13 -2 28 -6 12 -13 24 -14 25 -1 2 -17 -1 -35 -7 -20 -7 -47 -30 -68 -59
-62 -83 -431 -442 -455 -442 -6 0 -22 -11 -34 -24 -36 -39 -8 -61 42 -33 26
14 124 94 186 151 29 27 41 34 36 21 -28 -72 -34 -93 -35 -121 0 -37 16 -54
51 -54 63 0 135 43 270 162 37 32 69 58 72 58 3 0 -5 -24 -18 -53 -46 -105 -1
-170 102 -146 57 12 140 61 255 151 48 37 90 68 92 68 3 0 -4 -24 -14 -52 -15
-43 -17 -63 -9 -102 13 -72 42 -99 116 -110 80 -12 195 48 323 169 54 51 79
67 145 90 86 30 339 155 393 194 18 13 36 21 39 17 3 -3 -28 -56 -69 -118
-113 -170 -156 -248 -165 -303 -4 -27 -2 -33 17 -38 40 -10 101 32 225 155 65
66 157 149 202 184 79 62 286 194 304 194 14 0 -23 -71 -76 -145 -94 -130
-118 -173 -135 -234 -9 -36 -9 -47 5 -67 12 -19 24 -24 61 -24 50 0 108 26
216 97 97 63 98 63 98 14 0 -27 6 -47 20 -61 41 -41 92 -36 199 23 56 31 79
47 197 145 35 29 64 50 64 47 0 -3 -13 -30 -30 -60 -51 -91 -33 -166 41 -168
39 -1 141 43 205 89 22 16 62 45 89 64 26 19 81 62 121 95 153 126 241 191
250 182 14 -13 -60 -137 -129 -217 -21 -25 -61 -78 -88 -118 -40 -60 -47 -77
-39 -93 17 -30 54 -23 111 23 83 66 99 80 93 90 -3 4 1 8 9 8 7 0 23 10 35 23
98 103 325 254 368 245 15 -3 5 -19 -148 -241 -31 -46 -60 -95 -63 -109 -14
-54 67 -92 98 -48 26 37 210 200 292 259 78 56 166 111 177 111 3 0 -14 -47
-38 -104 -70 -165 -71 -237 -4 -310 28 -30 60 -51 107 -69 147 -57 289 -56
813 5 334 39 609 45 703 14 31 -10 55 -21 53 -24 -8 -7 21 -32 37 -32 8 0 20
7 27 15 28 34 -37 86 -145 116 -62 17 -363 18 -480 1 -44 -6 -138 -19 -210
-27 -71 -9 -159 -20 -195 -25 -112 -17 -190 -23 -335 -24 -122 -1 -149 2 -207
22 -93 32 -128 74 -128 151 0 54 25 153 55 216 22 48 39 120 32 138 -18 49
-148 -17 -362 -183 -98 -76 -110 -85 -98 -69 6 8 25 39 41 69 16 30 41 77 56
104 14 27 26 59 26 72 0 31 -33 48 -82 41 -39 -5 -191 -86 -260 -138 -21 -16
-56 -43 -78 -60 l-41 -31 16 38 c8 21 19 42 24 48 5 6 18 39 31 74 20 59 21
65 6 87 -9 14 -24 25 -34 25 -28 0 -114 -46 -167 -90 -252 -206 -481 -354
-512 -329 -20 17 -9 41 66 149 123 179 159 235 165 255 7 27 -51 94 -87 100
-68 13 -276 -60 -389 -135 -67 -45 -149 -121 -203 -190 -53 -67 -307 -230
-357 -230 -38 0 -21 41 63 150 91 119 149 228 149 279 0 61 -65 77 -128 32
-15 -10 -43 -27 -62 -37 -106 -57 -312 -217 -440 -340 -30 -29 -56 -51 -59
-49 -2 2 11 26 28 53 17 27 31 52 31 55 0 11 187 292 211 317 13 14 42 38 64
55 22 16 69 54 105 84 36 30 90 75 120 100 73 61 474 462 531 530 24 30 69 84
100 120 131 155 359 467 359 491 0 5 4 10 9 10 12 0 104 190 131 270 22 66 22
129 -2 157 -15 18 -58 15 -91 -7z m27 -153 c-19 -59 -89 -204 -110 -228 -8 -8
-14 -19 -14 -22 0 -12 -107 -164 -214 -305 -56 -74 -105 -140 -111 -149 -56
-86 -500 -553 -626 -658 -81 -68 -160 -127 -165 -123 -2 3 21 38 52 79 30 41
133 178 228 304 95 127 223 295 285 375 147 189 254 328 266 348 13 20 98 130
122 157 10 11 38 45 62 75 85 106 176 203 206 222 30 18 30 18 33 -2 2 -11 -4
-44 -14 -73z m-1108 -282 c-18 -97 -142 -300 -331 -541 -111 -142 -204 -255
-248 -304 -22 -25 -65 -72 -96 -105 -187 -204 -515 -516 -499 -475 3 9 38 64
77 123 39 58 71 109 71 112 0 3 22 34 48 68 27 34 66 89 88 122 45 68 213 304
229 321 5 7 19 24 30 40 11 15 38 50 60 77 54 67 94 118 130 164 16 21 47 58
70 83 22 25 53 61 68 80 44 56 178 189 230 231 63 50 81 51 73 4z m914 -1362
c-56 -74 -227 -234 -335 -315 -166 -126 -245 -159 -245 -104 0 40 18 77 64
131 74 86 127 132 216 190 132 85 172 101 290 119 14 2 26 4 28 5 2 0 -6 -11
-18 -26z"/>
<path d="M7363 2836 c-106 -34 -180 -117 -167 -185 7 -32 57 -82 132 -134 72
-49 81 -135 19 -179 -26 -19 -45 -23 -100 -23 -64 0 -70 2 -95 31 -15 17 -32
39 -38 50 -10 16 -13 17 -28 5 -26 -22 -20 -73 12 -103 38 -36 93 -51 168 -46
105 7 183 74 192 167 6 62 -21 110 -82 149 -22 14 -56 39 -73 56 -54 50 -39
107 37 146 74 38 120 21 120 -45 0 -32 3 -36 22 -33 32 4 55 49 43 84 -21 57
-90 83 -162 60z"/>
<path d="M8362 2763 c-10 -21 -27 -69 -36 -108 -69 -272 -135 -384 -203 -339
-14 9 -30 29 -36 45 -6 16 -17 29 -25 29 -7 0 -10 5 -7 10 3 6 -1 10 -9 10
-30 0 -24 -94 6 -128 53 -55 144 -45 206 22 45 48 70 110 101 246 12 52 31
125 42 163 11 37 17 72 14 77 -13 20 -35 9 -53 -27z"/>
<path d="M7728 2780 c-18 -11 -46 -82 -107 -275 -72 -230 -74 -245 -31 -245
24 0 38 28 66 130 17 63 64 140 64 106 0 -26 65 -149 92 -173 49 -46 148 -74
148 -43 0 5 3 15 6 24 5 12 0 16 -18 16 -34 0 -101 73 -132 144 -14 32 -26 64
-26 70 1 19 258 186 286 186 8 0 14 5 14 11 0 17 -20 49 -30 49 -5 0 -86 -52
-180 -115 -93 -63 -170 -111 -169 -107 0 4 15 52 33 107 40 119 36 145 -16
115z"/>
</g>
</svg>
