<?xml version="1.0" standalone="no"?>
<!DOCTYPE svg PUBLIC "-//W3C//DTD SVG 20010904//EN"
 "http://www.w3.org/TR/2001/REC-SVG-20010904/DTD/svg10.dtd">
<svg version="1.0" xmlns="http://www.w3.org/2000/svg"
 width="693.000000pt" height="606.000000pt" viewBox="0 0 693.000000 606.000000"
 preserveAspectRatio="xMidYMid meet">
<metadata>
Created by potrace 1.16, written by Peter Selinger 2001-2019
</metadata>
<g transform="translate(0.000000,606.000000) scale(0.100000,-0.100000)"
fill="currentColor" stroke="none">
<path d="M750 5815 c-250 -53 -451 -238 -534 -489 -9 -27 -21 -94 -26 -150 -6
-62 -9 -727 -7 -1721 l2 -1620 22 -78 c68 -239 240 -420 478 -504 l80 -28
2109 -3 c1997 -2 2108 -3 2101 -20 -4 -9 -31 -87 -60 -172 -29 -85 -94 -271
-144 -414 -50 -142 -91 -264 -91 -271 0 -31 39 -17 221 75 107 55 197 99 200
100 3 0 45 -79 94 -175 74 -147 92 -175 109 -173 22 3 43 59 216 575 52 156
98 283 101 283 3 0 13 -24 22 -52 10 -29 88 -228 175 -443 144 -357 160 -390
181 -390 21 0 35 24 116 195 60 127 98 194 106 192 8 -2 100 -39 206 -83 106
-44 200 -79 210 -77 11 2 18 12 17 23 -1 11 -73 211 -160 444 -106 284 -154
426 -146 429 7 2 47 26 89 54 136 89 241 214 299 356 56 140 54 61 54 1871 0
1633 0 1669 -20 1747 -26 102 -77 204 -140 278 -96 111 -188 174 -325 223
l-80 28 -2705 2 c-2269 1 -2715 -1 -2770 -12z m5468 -382 c77 -31 133 -82 173
-155 l34 -63 3 -1341 2 -1342 -107 107 c-118 116 -203 171 -333 217 -481 168
-987 -65 -1170 -538 -89 -231 -78 -456 37 -716 4 -10 -393 -12 -2023 -10
l-2029 3 -47 22 c-88 40 -178 143 -192 218 -3 17 -6 782 -8 1700 l-3 1670 22
47 c24 53 90 128 138 158 83 51 -64 49 2795 47 l2655 -2 53 -22z m-377 -2926
c178 -61 309 -197 355 -372 16 -59 18 -202 3 -265 -21 -91 -69 -172 -148 -250
-111 -110 -229 -160 -376 -160 -239 1 -459 172 -520 405 -54 208 29 438 200
560 111 80 183 103 325 104 74 0 110 -5 161 -22z"/>
<path d="M2424 4751 c-51 -23 -104 -75 -130 -127 -18 -38 -19 -71 -19 -1104 0
-1060 0 -1065 21 -1110 64 -138 216 -192 369 -131 169 67 1134 562 1466 751
47 27 182 101 300 164 235 125 275 154 316 223 22 38 27 59 27 114 0 57 -4 74
-30 115 -16 27 -50 64 -74 82 -25 18 -171 99 -325 179 -334 173 -1550 773
-1713 844 -57 25 -153 25 -208 0z"/>
</g>
</svg>
